<svg xmlns="http://www.w3.org/2000/svg" xmlns:xlink="http://www.w3.org/1999/xlink" width="500" zoomAndPan="magnify" viewBox="0 0 375 374.999991" height="500" preserveAspectRatio="xMidYMid meet" version="1.0"><defs><clipPath id="47acf6ec97"><path d="M 0 0 L 374.734375 0 L 374.734375 375 L 0 375 Z M 0 0 " clip-rule="nonzero"/></clipPath></defs><g clip-path="url(#47acf6ec97)"><path fill="#c2c2c2" d="M 186.203125 116.1875 C 225.1875 115.457031 257.347656 146.484375 258.078125 185.46875 C 258.078125 186.167969 258.078125 186.835938 258.078125 187.535156 C 258.511719 226.519531 227.285156 258.476562 188.300781 258.910156 C 149.3125 259.34375 117.355469 228.117188 116.921875 189.132812 C 116.921875 188.597656 116.921875 188.066406 116.921875 187.535156 C 116.488281 148.75 147.417969 116.886719 186.203125 116.1875 Z M 193.757812 0.167969 C 183.238281 -0.199219 172.683594 0.332031 162.265625 1.730469 C 158.570312 2.230469 155.539062 4.828125 154.441406 8.355469 L 144.054688 42.179688 C 143.15625 45.042969 140.957031 47.339844 138.128906 48.339844 C 133.234375 50.105469 128.441406 52.070312 123.746094 54.300781 C 121.015625 55.628906 117.820312 55.5625 115.15625 54.132812 L 83.929688 37.554688 C 80.632812 35.820312 76.636719 36.15625 73.707031 38.417969 C 60.324219 48.574219 48.40625 60.523438 38.21875 73.875 C 35.957031 76.835938 35.621094 80.800781 37.351562 84.09375 L 53.964844 115.355469 C 55.398438 117.988281 55.53125 121.183594 54.300781 123.914062 C 52.035156 128.605469 50.039062 133.402344 48.304688 138.292969 C 47.308594 141.15625 45.011719 143.355469 42.113281 144.21875 L 8.324219 154.640625 C 4.761719 155.707031 2.164062 158.769531 1.699219 162.429688 C -0.566406 179.109375 -0.566406 195.957031 1.699219 212.636719 C 2.164062 216.296875 4.761719 219.359375 8.324219 220.425781 L 42.113281 230.847656 C 45.011719 231.710938 47.308594 233.910156 48.304688 236.773438 C 50.039062 241.664062 52.035156 246.460938 54.300781 251.152344 C 55.53125 253.882812 55.398438 257.078125 53.964844 259.710938 L 37.351562 290.972656 C 35.621094 294.234375 35.957031 298.230469 38.21875 301.191406 C 48.40625 314.542969 60.324219 326.460938 73.707031 336.648438 C 76.636719 338.910156 80.632812 339.210938 83.929688 337.511719 L 115.15625 320.933594 C 117.820312 319.503906 121.015625 319.4375 123.746094 320.734375 C 128.441406 322.964844 133.234375 324.960938 138.128906 326.695312 C 140.957031 327.691406 143.15625 329.988281 144.054688 332.851562 L 154.441406 366.675781 C 155.539062 370.238281 158.570312 372.835938 162.265625 373.300781 C 178.910156 375.566406 195.789062 375.566406 212.4375 373.300781 C 216.097656 372.835938 219.160156 370.238281 220.257812 366.675781 L 230.644531 332.851562 C 231.546875 329.988281 233.742188 327.691406 236.570312 326.695312 C 241.464844 324.960938 246.292969 322.964844 250.953125 320.734375 C 253.683594 319.4375 256.847656 319.503906 259.511719 320.933594 L 290.769531 337.511719 C 294.066406 339.210938 298.0625 338.910156 300.992188 336.648438 C 314.375 326.460938 326.292969 314.542969 336.480469 301.191406 C 338.746094 298.230469 339.078125 294.234375 337.347656 290.972656 L 320.765625 259.710938 C 319.300781 257.078125 319.203125 253.882812 320.433594 251.152344 C 322.664062 246.460938 324.664062 241.664062 326.394531 236.773438 C 327.390625 233.910156 329.691406 231.710938 332.585938 230.847656 L 366.410156 220.425781 C 369.941406 219.328125 372.535156 216.296875 373.035156 212.636719 C 375.265625 195.957031 375.265625 179.109375 373.035156 162.429688 C 372.535156 158.769531 369.941406 155.707031 366.410156 154.640625 L 332.585938 144.21875 C 329.691406 143.355469 327.390625 141.15625 326.394531 138.292969 C 324.664062 133.402344 322.664062 128.605469 320.433594 123.914062 C 319.203125 121.183594 319.300781 117.988281 320.765625 115.355469 L 337.347656 84.09375 C 339.078125 80.800781 338.746094 76.835938 336.480469 73.875 C 326.292969 60.523438 314.375 48.574219 300.992188 38.417969 C 298.0625 36.15625 294.066406 35.820312 290.769531 37.554688 L 259.511719 54.132812 C 256.847656 55.5625 253.683594 55.628906 250.953125 54.332031 C 246.292969 52.101562 241.464844 50.105469 236.570312 48.375 C 233.742188 47.375 231.546875 45.078125 230.644531 42.179688 L 220.257812 8.390625 C 219.160156 4.828125 216.097656 2.230469 212.4375 1.730469 C 206.242188 0.898438 200.019531 0.367188 193.757812 0.167969 " fill-opacity="1" fill-rule="nonzero"/></g></svg>